<?xml version="1.0" encoding="UTF-8"?>
<svg id="_Шар_1" data-name="Шар 1" xmlns="http://www.w3.org/2000/svg" xmlns:xlink="http://www.w3.org/1999/xlink" viewBox="0 0 1390.72 566.93">
  <defs>
    <style>
      .cls-1 {
        fill: #f0f;
      }

      .cls-1, .cls-2, .cls-3, .cls-4 {
        stroke: #000;
        stroke-miterlimit: 10;
      }

      .cls-1, .cls-3 {
        stroke-width: .58px;
      }

      .cls-2 {
        stroke-width: 6px;
      }

      .cls-2, .cls-4 {
        fill: none;
      }

      .cls-3 {
        fill: #ff1d25;
        fill-rule: evenodd;
      }

      .cls-5 {
        fill: url(#_Градієнт_без_назви_50-2);
      }

      .cls-4 {
        stroke-width: 7px;
      }

      .cls-6 {
        fill: url(#_Градієнт_без_назви_50);
      }
    </style>
    <linearGradient id="_Градієнт_без_назви_50" data-name="Градієнт без назви 50" x1="767.48" y1="284.29" x2="1386.89" y2="284.29" gradientUnits="userSpaceOnUse">
      <stop offset="0" stop-color="#fff"/>
      <stop offset=".08" stop-color="#fcf5f5"/>
      <stop offset=".22" stop-color="#f6dcdc"/>
      <stop offset=".4" stop-color="#ebb2b3"/>
      <stop offset=".62" stop-color="#dd787b"/>
      <stop offset=".85" stop-color="#cb3034"/>
      <stop offset=".99" stop-color="#bf0005"/>
    </linearGradient>
    <linearGradient id="_Градієнт_без_назви_50-2" data-name="Градієнт без назви 50" x1="767.7" y1="337.32" x2="1269.93" y2="337.32" xlink:href="#_Градієнт_без_назви_50"/>
  </defs>
  <path class="cls-1" d="m555.72,292.14l-105.06.66c-2.17,106.8-83.32,194.22-187.43,206.25-8.07.93-16.27,1.41-24.59,1.41-122.78,0-223.63-93.9-234.64-213.81-.66-7.19-1-14.47-1-21.83C3,120.75,119.36,3.86,263.23,3.01c.53-.01,1.06-.01,1.59-.01,158.23,0,286.97,126.35,290.82,283.65.05,1.82.07,3.65.08,5.49Z"/>
  <path class="cls-3" d="m555.64,286.65C551.79,129.35,423.05,3,264.82,3c-.53,0-1.06,0-1.59.01C119.36,3.86,3,120.75,3,264.82c0,7.36.34,14.64,1,21.83,11.01,119.91,111.86,213.81,234.64,213.81,8.32,0,16.52-.48,24.59-1.41,104.11-12.03,185.26-99.45,187.43-206.25l105.06-.66c-.01-1.84-.03-3.67-.08-5.49Zm-268.75,0c-2.36,13.36-11.45,24.39-23.66,29.45-4.64,1.93-9.72,2.99-15.05,2.99-20.23,0-37.25-13.76-42.2-32.44-.95-3.58-1.46-7.34-1.46-11.22,0-26.8,21.72-48.52,48.51-48.52,3.49,0,6.9.33,10.2.97,24.9,4.76,43.71,26.66,43.71,52.94,0,1.97-.1,3.91-.28,5.83m-19.77,0c-2.36,13.36-11.45,24.39-23.66,29.45-4.64,1.93-9.72,2.99-15.05,2.99-20.23,0-37.25-13.76-42.2-32.44-.95-3.58-1.46-7.34-1.46-11.22,0-26.8,21.72-48.52,48.51-48.52,3.49,0,6.9.33,10.2.97,24.9,4.76,43.71,26.66,43.71,52.94,0,1.97-.1,3.91-.28,5.83m-19.77,0c-2.36,13.36-11.45,24.39-23.66,29.45-4.64,1.93-9.72,2.99-15.05,2.99-20.23,0-37.25-13.76-42.2-32.44-.95-3.58-1.46-7.34-1.46-11.22,0-26.8,21.72-48.52,48.51-48.52,3.49,0,6.9.33,10.2.97,24.9,4.76,43.71,26.66,43.71,52.94,0,1.97-.1,3.91-.28,5.83m-19.77,0c-2.36,13.36-11.45,24.39-23.66,29.45-4.64,1.93-9.72,2.99-15.05,2.99-20.23,0-37.25-13.76-42.2-32.44-.95-3.58-1.46-7.34-1.46-11.22,0-26.8,21.72-48.52,48.51-48.52,3.49,0,6.9.33,10.2.97,24.9,4.76,43.71,26.66,43.71,52.94,0,1.97-.1,3.91-.28,5.83m-19.77,0c-2.36,13.36-11.45,24.39-23.66,29.45-4.64,1.93-9.72,2.99-15.05,2.99-20.23,0-37.25-13.76-42.2-32.44-.95-3.58-1.46-7.34-1.46-11.22,0-26.8,21.72-48.52,48.51-48.52,3.49,0,6.9.33,10.2.97,24.9,4.76,43.71,26.66,43.71,52.94,0,1.97-.1,3.91-.28,5.83m-19.77,0c-2.36,13.36-11.45,24.39-23.66,29.45-4.64,1.93-9.72,2.99-15.05,2.99-20.23,0-37.25-13.76-42.2-32.44-.95-3.58-1.46-7.34-1.46-11.22,0-26.8,21.72-48.52,48.51-48.52,3.49,0,6.9.33,10.2.97,24.9,4.76,43.71,26.66,43.71,52.94,0,1.97-.1,3.91-.28,5.83m-19.77,0c-2.36,13.36-11.45,24.39-23.66,29.45-4.64,1.93-9.72,2.99-15.05,2.99-20.23,0-37.25-13.76-42.2-32.44-.95-3.58-1.46-7.34-1.46-11.22,0-26.8,21.72-48.52,48.51-48.52,3.49,0,6.9.33,10.2.97,24.9,4.76,43.71,26.66,43.71,52.94,0,1.97-.1,3.91-.28,5.83m-19.77,0c-2.36,13.36-11.45,24.39-23.66,29.45-4.64,1.93-9.72,2.99-15.05,2.99-20.23,0-37.25-13.76-42.2-32.44-.95-3.58-1.46-7.34-1.46-11.22,0-26.8,21.72-48.52,48.51-48.52,3.49,0,6.9.33,10.2.97,24.9,4.76,43.71,26.66,43.71,52.94,0,1.97-.1,3.91-.28,5.83m-19.77,0c-2.36,13.36-11.45,24.39-23.66,29.45-4.64,1.93-9.72,2.99-15.05,2.99-20.23,0-37.25-13.76-42.2-32.44-.95-3.58-1.46-7.34-1.46-11.22,0-26.8,21.72-48.52,48.51-48.52,3.49,0,6.9.33,10.2.97,24.9,4.76,43.71,26.66,43.71,52.94,0,1.97-.1,3.91-.28,5.83m-19.77,0c-2.36,13.36-11.45,24.39-23.66,29.45-4.64,1.93-9.72,2.99-15.05,2.99-20.23,0-37.25-13.76-42.2-32.44-.95-3.58-1.46-7.34-1.46-11.22,0-26.8,21.72-48.52,48.51-48.52,3.49,0,6.9.33,10.2.97,24.9,4.76,43.71,26.66,43.71,52.94,0,1.97-.1,3.91-.28,5.83m-19.77,0c-2.36,13.36-11.45,24.39-23.66,29.45-4.64,1.93-9.72,2.99-15.05,2.99-20.23,0-37.25-13.76-42.2-32.44-.95-3.58-1.46-7.34-1.46-11.22,0-26.8,21.72-48.52,48.51-48.52,3.49,0,6.9.33,10.2.97,24.9,4.76,43.71,26.66,43.71,52.94,0,1.97-.1,3.91-.28,5.83m75.14,0c0-.63,0-1.26,0-1.89,0-66.93-52.51-121.6-118.58-125.06-2.2-.11-4.42-.17-6.65-.17-62.25,0-112.71,50.46-112.71,112.71,0,4.89.35,9.7,1.03,14.41,6.98,49.19,49.28,87.02,100.41,87.02,6.13,0,12.13-.6,17.92-1.77,38.28-7.61,67.92-39.16,72.69-78.38.28-2.27.47-4.56.58-6.87m45.3,0c0-.63,0-1.26,0-1.89,0-66.93-52.51-121.6-118.58-125.06-2.2-.11-4.42-.17-6.65-.17-62.25,0-112.71,50.46-112.71,112.71,0,4.89.35,9.7,1.03,14.41,6.98,49.19,49.28,87.02,100.41,87.02,6.13,0,12.13-.6,17.92-1.77,38.28-7.61,67.92-39.16,72.69-78.38.28-2.27.47-4.56.58-6.87m45.3,0c0-.63,0-1.26,0-1.89,0-66.93-52.51-121.6-118.58-125.06-2.2-.11-4.42-.17-6.65-.17-62.25,0-112.71,50.46-112.71,112.71,0,4.89.35,9.7,1.03,14.41,6.98,49.19,49.28,87.02,100.41,87.02,6.13,0,12.13-.6,17.92-1.77,38.28-7.61,67.92-39.16,72.69-78.38.28-2.27.47-4.56.58-6.87m45.3,0c0-.63,0-1.26,0-1.89,0-66.93-52.51-121.6-118.58-125.06-2.2-.11-4.42-.17-6.65-.17-62.25,0-112.71,50.46-112.71,112.71,0,4.89.35,9.7,1.03,14.41,6.98,49.19,49.28,87.02,100.41,87.02,6.13,0,12.13-.6,17.92-1.77,38.28-7.61,67.92-39.16,72.69-78.38.28-2.27.47-4.56.58-6.87m45.3,0c0-.63,0-1.26,0-1.89,0-66.93-52.51-121.6-118.58-125.06-2.2-.11-4.42-.17-6.65-.17-62.25,0-112.71,50.46-112.71,112.71,0,4.89.35,9.7,1.03,14.41,6.98,49.19,49.28,87.02,100.41,87.02,6.13,0,12.13-.6,17.92-1.77,38.28-7.61,67.92-39.16,72.69-78.38.28-2.27.47-4.56.58-6.87m45.3,0c0-.63,0-1.26,0-1.89,0-66.93-52.51-121.6-118.58-125.06-2.2-.11-4.42-.17-6.65-.17-62.25,0-112.71,50.46-112.71,112.71,0,4.89.35,9.7,1.03,14.41,6.98,49.19,49.28,87.02,100.41,87.02,6.13,0,12.13-.6,17.92-1.77,38.28-7.61,67.92-39.16,72.69-78.38.28-2.27.47-4.56.58-6.87m45.3,0c0-.63,0-1.26,0-1.89,0-66.93-52.51-121.6-118.58-125.06-2.2-.11-4.42-.17-6.65-.17-62.25,0-112.71,50.46-112.71,112.71,0,4.89.35,9.7,1.03,14.41,6.98,49.19,49.28,87.02,100.41,87.02,6.13,0,12.13-.6,17.92-1.77,38.28-7.61,67.92-39.16,72.69-78.38.28-2.27.47-4.56.58-6.87m45.3,0c0-.63,0-1.26,0-1.89,0-66.93-52.51-121.6-118.58-125.06-2.2-.11-4.42-.17-6.65-.17-62.25,0-112.71,50.46-112.71,112.71,0,4.89.35,9.7,1.03,14.41,6.98,49.19,49.28,87.02,100.41,87.02,6.13,0,12.13-.6,17.92-1.77,38.28-7.61,67.92-39.16,72.69-78.38.28-2.27.47-4.56.58-6.87m45.3,0c0-.63,0-1.26,0-1.89,0-66.93-52.51-121.6-118.58-125.06-2.2-.11-4.42-.17-6.65-.17-62.25,0-112.71,50.46-112.71,112.71,0,4.89.35,9.7,1.03,14.41,6.98,49.19,49.28,87.02,100.41,87.02,6.13,0,12.13-.6,17.92-1.77,38.28-7.61,67.92-39.16,72.69-78.38.28-2.27.47-4.56.58-6.87m45.3,0c0-.63,0-1.26,0-1.89,0-66.93-52.51-121.6-118.58-125.06-2.2-.11-4.42-.17-6.65-.17-62.25,0-112.71,50.46-112.71,112.71,0,4.89.35,9.7,1.03,14.41,6.98,49.19,49.28,87.02,100.41,87.02,6.13,0,12.13-.6,17.92-1.77,38.28-7.61,67.92-39.16,72.69-78.38.28-2.27.47-4.56.58-6.87m45.3,0c0-.63,0-1.26,0-1.89,0-66.93-52.51-121.6-118.58-125.06-2.2-.11-4.42-.17-6.65-.17-62.25,0-112.71,50.46-112.71,112.71,0,4.89.35,9.7,1.03,14.41,6.98,49.19,49.28,87.02,100.41,87.02,6.13,0,12.13-.6,17.92-1.77,38.28-7.61,67.92-39.16,72.69-78.38.28-2.27.47-4.56.58-6.87m45.3,0c-.03,2.21-.11,4.4-.24,6.58-3.97,66.02-53.97,119.63-118.33,129.16-6.71,1-13.57,1.51-20.56,1.51-79.52,0-145.02-60.04-153.64-137.25-.64-5.69-.97-11.48-.97-17.35,0-94.87,76.91-171.78,171.78-171.78,1.13,0,2.26.01,3.39.03,103.28,1.8,186.55,85.61,187.47,189.1"/>
  <path class="cls-2" d="m287.48,279.79c0,2.34-.2,4.63-.59,6.86-2.36,13.36-11.45,24.39-23.66,29.45-4.64,1.93-9.72,2.99-15.05,2.99-20.23,0-37.25-13.76-42.2-32.44-.95-3.58-1.46-7.34-1.46-11.22,0-26.8,21.72-48.52,48.51-48.52,3.49,0,6.9.33,10.2.97,24.9,4.76,43.71,26.66,43.71,52.94,0,1.97-.1,3.91-.28,5.83-2.4,24.88-20.02,45.3-43.43,51.86-5.15,1.44-10.58,2.21-16.19,2.21-32.48,0-59.53-23.28-65.37-54.07-.78-4.04-1.18-8.22-1.18-12.49,0-40.84,33.11-73.94,73.95-73.94,2.97,0,5.9.16,8.79.47,41.25,4.38,73.37,39.28,73.37,81.69,0,1.43-.03,2.85-.1,4.27-.11,2.31-.3,4.6-.58,6.87-4.77,39.22-34.41,70.77-72.69,78.38-5.79,1.17-11.79,1.77-17.92,1.77-51.13,0-93.43-37.83-100.41-87.02-.68-4.71-1.03-9.52-1.03-14.41,0-62.25,50.46-112.71,112.71-112.71,2.23,0,4.45.06,6.65.17,66.07,3.46,118.58,58.13,118.58,125.06,0,.63,0,1.26,0,1.89-.03,2.21-.11,4.4-.24,6.58-3.97,66.02-53.97,119.63-118.33,129.16-6.71,1-13.57,1.51-20.56,1.51-79.52,0-145.02-60.04-153.64-137.25-.64-5.69-.97-11.48-.97-17.35,0-94.87,76.91-171.78,171.78-171.78,1.13,0,2.26.01,3.39.03,103.28,1.8,186.55,85.61,187.47,189.1.01.58.01,1.16.01,1.74,0,1.47-.02,2.94-.05,4.41-2.17,106.8-83.32,194.22-187.43,206.25-8.07.93-16.27,1.41-24.59,1.41-122.78,0-223.63-93.9-234.64-213.81-.66-7.19-1-14.47-1-21.83C3,120.75,119.36,3.86,263.23,3.01c.53-.01,1.06-.01,1.59-.01,158.23,0,286.97,126.35,290.82,283.65.05,1.82.07,3.65.08,5.49.01.59.01,1.18.01,1.77"/>
  <path class="cls-6" d="m1269.56,312.97c7.25,130.85-92.95,242.8-223.8,250.05-145.39,8.05-269.78-103.28-277.83-248.67-.09-1.66-.17-3.33-.23-4.98-6.17-159.39,116.65-294.86,276.53-303.72,177.73-9.84,330.05,124.83,342.66,301.74l-117.68.38c.14,1.73.25,3.46.35,5.2Z"/>
  <path class="cls-5" d="m1141.71,313.32c-.1-1.73-.24-3.45-.43-5.15-5.35-48.14-47.48-84.26-96.44-81.55-43.93,2.42-77.95,38.7-78.17,82.11l-41.08.13c.03,1.68.09,3.37.18,5.06,3.47,62.58,57.01,110.51,119.6,107.04,56.33-3.12,99.46-51.31,96.34-107.64Zm0,0c-.1-1.73-.24-3.45-.43-5.15-5.35-48.14-47.48-84.26-96.44-81.55-43.93,2.42-77.95,38.7-78.17,82.11l-41.08.13c.03,1.68.09,3.37.18,5.06,3.47,62.58,57.01,110.51,119.6,107.04,56.33-3.12,99.46-51.31,96.34-107.64Zm127.85-.35c-.1-1.74-.21-3.47-.35-5.2-9.15-115.2-108.66-202.64-224.69-196.22-104.31,5.78-184.57,93.7-181.5,197.51l62.57-.2c-1.07-67.34,51.27-124.07,119.12-127.83,75.54-4.18,140.4,52.27,147.26,126.98.17,1.71.29,3.44.39,5.17,4.76,85.86-60.98,159.31-146.84,164.06-95.39,5.28-177-67.76-182.28-163.15-.09-1.68-.16-3.36-.22-5.03l-95.32.31c.06,1.65.14,3.32.23,4.98,8.05,145.39,132.44,256.72,277.83,248.67,130.85-7.25,231.05-119.2,223.8-250.05Zm-224.19,107.99c56.33-3.12,99.46-51.31,96.34-107.64-.1-1.73-.24-3.45-.43-5.15-5.35-48.14-47.48-84.26-96.44-81.55-43.93,2.42-77.95,38.7-78.17,82.11l-41.08.13c.03,1.68.09,3.37.18,5.06,3.47,62.58,57.01,110.51,119.6,107.04Z"/>
  <path class="cls-4" d="m1387.23,312.65c-.1-1.76-.21-3.51-.34-5.26-12.61-176.91-164.93-311.58-342.66-301.74-159.88,8.86-282.7,144.33-276.53,303.72.06,1.65.14,3.32.23,4.98,8.05,145.39,132.44,256.72,277.83,248.67,130.85-7.25,231.05-119.2,223.8-250.05-.1-1.74-.21-3.47-.35-5.2-9.15-115.2-108.66-202.64-224.69-196.22-104.31,5.78-184.57,93.7-181.5,197.51.06,1.67.13,3.35.22,5.03,5.28,95.39,86.89,168.43,182.28,163.15,85.86-4.75,151.6-78.2,146.84-164.06-.1-1.73-.22-3.46-.39-5.17-6.86-74.71-71.72-131.16-147.26-126.98-67.85,3.76-120.19,60.49-119.12,127.83.03,1.68.09,3.37.18,5.06,3.47,62.58,57.01,110.51,119.6,107.04,56.33-3.12,99.46-51.31,96.34-107.64-.1-1.73-.24-3.45-.43-5.15-5.35-48.14-47.48-84.26-96.44-81.55-43.93,2.42-77.95,38.7-78.17,82.11-.01,1.68.04,3.37.13,5.07,2.28,41.07,37.41,72.51,78.47,70.24,36.95-2.05,65.25-33.67,63.21-70.62-.1-1.74-.26-3.45-.51-5.14-4.31-30.71-31.53-53.49-63.05-51.75-28.23,1.56-50.22,24.43-51.23,52.12-.08,1.68-.06,3.37.03,5.08,1.49,26.94,24.54,47.57,51.48,46.08,24.25-1.34,42.82-22.09,41.47-46.33"/>
</svg>