<?xml version="1.0" encoding="UTF-8"?>
<svg xmlns="http://www.w3.org/2000/svg" xmlns:xlink="http://www.w3.org/1999/xlink" viewBox="0 0 1001.37 794.56">
  <defs>
    <style>
      .cls-1 {
        fill: #fff;
      }

      .cls-2 {
        fill: #8e1091;
      }

      .cls-3 {
        fill: blue;
      }

      .cls-4 {
        fill: #1b1464;
      }

      .cls-5 {
        fill: #24cece;
      }

      .cls-6, .cls-7 {
        fill: none;
      }

      .cls-8 {
        fill: url(#_Градієнт_без_назви_53);
      }

      .cls-7 {
        stroke: #ff0;
        stroke-miterlimit: 10;
        stroke-width: 3px;
      }
    </style>
    <linearGradient id="_Градієнт_без_назви_53" data-name="Градієнт без назви 53" x1="337.02" y1="617.77" x2="659.02" y2="617.77" gradientUnits="userSpaceOnUse">
      <stop offset="0" stop-color="#e9a900"/>
      <stop offset=".06" stop-color="#e39f03"/>
      <stop offset=".15" stop-color="#d3860d"/>
      <stop offset=".28" stop-color="#b95c1e"/>
      <stop offset=".42" stop-color="#952334"/>
      <stop offset=".5" stop-color="#7f0043"/>
      <stop offset=".99" stop-color="#7f0043"/>
    </linearGradient>
  </defs>
  <g id="_Шар_1" data-name="Шар 1">
    <path class="cls-3" d="m96.92,274.2c42.28,41.11,87.17,70.73,123.8,84.21,30.11,11.08,54.64,11.27,67.58-2.05,10.9-11.21,12-30.34,4.97-53.89-11.5-38.46-44.71-88.66-92.49-135.11C123.77,92.48,38.08,55.7,9.4,85.2s10.5,114.12,87.53,189Z"/>
    <path class="cls-3" d="m904.45,274.47c-42.28,41.11-87.17,70.73-123.8,84.21-30.11,11.08-54.64,11.27-67.58-2.05-10.9-11.21-12-30.34-4.97-53.89,11.5-38.46,44.71-88.66,92.49-135.11,77.02-74.88,162.7-111.67,191.39-82.16s-10.5,114.12-87.53,189Z"/>
    <path class="cls-4" d="m886.3,256.06c-27.77,27-57.26,46.46-81.32,55.32-19.77,7.28-35.89,7.4-44.39-1.35-7.16-7.36-7.88-19.93-3.26-35.4,7.55-25.26,29.37-58.24,60.76-88.75,50.59-49.19,106.87-73.35,125.72-53.97,18.84,19.38-6.9,74.96-57.49,124.14Z"/>
    <path class="cls-4" d="m114.61,256.09c27.77,27,57.26,46.46,81.32,55.32,19.77,7.28,35.89,7.4,44.39-1.35,7.16-7.36,7.88-19.93,3.26-35.4-7.55-25.26-29.37-58.24-60.76-88.75-50.59-49.19-106.87-73.35-125.72-53.97-18.84,19.38,6.9,74.96,57.49,124.14Z"/>
    <path class="cls-3" d="m835.02,183.51v450.55c0,58.97-10.05,111.8-25.92,147.47-10.87,8.18-24.39,13.03-39.03,13.03H249.97c-14.64,0-28.16-4.85-39.03-13.03-15.87-35.67-25.92-88.5-25.92-147.47V183.51c0-35.87,29.08-64.95,64.95-64.95h520.1c35.87,0,64.95,29.08,64.95,64.95Z"/>
  </g>
  <g id="_Шар_2" data-name="Шар 2">
    <path class="cls-7" d="m210.02,9.56c-36.45,32.58-39.58,88.55-7,125,29.33,32.81,79.69,35.63,112.5,6.3,29.53-26.39,32.06-71.72,5.67-101.25-23.75-26.57-64.55-28.86-91.12-5.1-23.92,21.38-25.97,58.1-4.59,82.01,19.24,21.52,52.29,23.37,73.81,4.13,19.37-17.32,21.04-47.06,3.72-66.43-15.59-17.43-42.35-18.93-59.79-3.35-15.69,14.03-17.04,38.12-3.01,53.81,12.62,14.12,34.31,15.34,48.43,2.71,12.71-11.36,13.8-30.88,2.44-43.58-10.23-11.44-27.79-12.42-39.23-2.2-10.29,9.2-11.18,25.01-1.98,35.3,8.28,9.27,22.51,10.06,31.77,1.78,8.34-7.45,9.06-20.26,1.6-28.6-6.71-7.5-18.23-8.15-25.74-1.44-6.75,6.04-7.34,16.41-1.3,23.16,5.43,6.08,14.77,6.6,20.85,1.17,5.47-4.89,5.94-13.29,1.05-18.76-4.4-4.92-11.96-5.35-16.89-.95"/>
    <path class="cls-7" d="m485.11,116.45c2.73-48.82-34.62-90.6-83.44-93.34-43.93-2.46-81.54,31.16-84,75.09-2.21,39.54,28.04,73.39,67.59,75.6,35.59,1.99,66.05-25.24,68.04-60.83,1.79-32.03-22.72-59.45-54.74-61.24-28.83-1.61-53.5,20.44-55.12,49.27-1.45,25.94,18.4,48.15,44.34,49.6,23.35,1.31,43.34-16.56,44.64-39.91,1.18-21.01-14.9-39-35.92-40.18-18.91-1.06-35.1,13.41-36.16,32.33-.95,17.02,12.07,31.59,29.09,32.54,15.32.86,28.43-10.87,29.29-26.18.77-13.79-9.78-25.59-23.57-26.36-12.41-.69-23.03,8.8-23.73,21.21-.63,11.17,7.92,20.73,19.09,21.35,10.05.56,18.65-7.13,19.22-17.18.51-9.05-6.42-16.79-15.46-17.3-8.14-.46-15.11,5.77-15.57,13.92-.41,7.33,5.2,13.6,12.52,14.01,6.59.37,12.24-4.68,12.61-11.27"/>
    <path class="cls-7" d="m490.02,144.49c32.58,36.45,88.55,39.58,125,7,32.81-29.33,35.63-79.69,6.3-112.5-26.39-29.53-71.72-32.06-101.25-5.67-26.57,23.75-28.86,64.55-5.1,91.12,21.38,23.92,58.1,25.97,82.01,4.59,21.52-19.24,23.37-52.29,4.13-73.81-17.32-19.37-47.06-21.04-66.43-3.72-17.43,15.59-18.93,42.35-3.35,59.79,14.03,15.69,38.12,17.04,53.81,3.01,14.12-12.62,15.34-34.31,2.71-48.43-11.36-12.71-30.88-13.8-43.58-2.44-11.44,10.23-12.42,27.79-2.2,39.23,9.2,10.29,25.01,11.18,35.3,1.98,9.27-8.28,10.06-22.51,1.78-31.77-7.45-8.34-20.26-9.06-28.6-1.6-7.5,6.71-8.15,18.23-1.44,25.74,6.04,6.75,16.41,7.34,23.16,1.3,6.08-5.43,6.6-14.77,1.17-20.85-4.89-5.47-13.29-5.94-18.76-1.05-4.92,4.4-5.35,11.96-.95,16.89"/>
    <path class="cls-7" d="m727.08,1.64c-48.82-2.73-90.6,34.62-93.34,83.44-2.46,43.93,31.16,81.54,75.09,84,39.54,2.21,73.39-28.04,75.6-67.59,1.99-35.59-25.24-66.05-60.83-68.04-32.03-1.79-59.45,22.72-61.24,54.74-1.61,28.83,20.44,53.5,49.27,55.12,25.94,1.45,48.15-18.4,49.6-44.34,1.31-23.35-16.56-43.34-39.91-44.64-21.01-1.18-39,14.9-40.18,35.92-1.06,18.91,13.41,35.1,32.33,36.16,17.02.95,31.59-12.07,32.54-29.09.86-15.32-10.87-28.43-26.18-29.29-13.79-.77-25.59,9.78-26.36,23.57-.69,12.41,8.8,23.03,21.21,23.73,11.17.63,20.73-7.92,21.35-19.09.56-10.05-7.13-18.65-17.18-19.22-9.05-.51-16.79,6.42-17.3,15.46-.46,8.14,5.77,15.11,13.92,15.57,7.33.41,13.6-5.2,14.01-12.52.37-6.59-4.68-12.24-11.27-12.61"/>
  </g>
  <g id="_Шар_3" data-name="Шар 3">
    <ellipse class="cls-1" cx="326.52" cy="332.06" rx="54.5" ry="116.5"/>
    <path class="cls-1" d="m700.02,332.06c0,56.17-18.6,103.06-43.35,114.05-3.6,1.61-7.33,2.45-11.15,2.45-19.37,0-36.39-21.61-46.05-54.16-5.35-18.03-8.45-39.41-8.45-62.34,0-64.34,24.4-116.5,54.5-116.5s54.5,52.16,54.5,116.5Z"/>
    <ellipse class="cls-5" cx="331.52" cy="373.06" rx="33.5" ry="41.5"/>
    <ellipse class="cls-5" cx="646.02" cy="373.06" rx="35" ry="39.5"/>
    <ellipse cx="331.02" cy="373.06" rx="12" ry="14.5"/>
    <ellipse cx="645.52" cy="376.56" rx="13.5" ry="16"/>
    <path class="cls-2" d="m688.99,532.8l-30.2.19-26.77.17-35,.23h-.04l-34.93.22h-.06l-34.94.22h-.06l-33.99.22c-.06-2.61-.22-5.14-.48-7.59-.26,2.45-.42,4.99-.48,7.6l-34,.21h-.04l-34.96.23h-.04l-34.97.22h-.02l-34.98.23-15.88.1-26.13.16v.35c0,104.38,84.62,189,189,189s189-84.62,189-189c0-.92-.01-1.84-.03-2.76Z"/>
    <path class="cls-8" d="m658.79,532.99l-26.77.17-35,.23h-.04l-34.93.22h-.06l-34.94.22h-.06l-33.99.22s0-.04,0-.05c-.15.01-.29.02-.45.02-.18,0-.34-.01-.51-.02,0,.02,0,.04,0,.07l-34,.21h-.04l-34.96.23h-.04l-34.97.22h-.02l-34.98.23-15.88.1c-.09,2.16-.13,4.33-.13,6.51,0,88.92,72.08,161,161,161s161-72.08,161-161c0-2.87-.08-5.73-.23-8.57Z"/>
    <path class="cls-1" d="m423.02,536.06c0,22.37-7.84,40.5-17.5,40.5s-17.5-18.13-17.5-40.5c0-.45,0-.9.01-1.34l34.97-.22c.02.52.02,1.04.02,1.56Z"/>
    <path class="cls-1" d="m458.02,536.06c0,22.37-7.84,40.5-17.5,40.5s-17.5-18.13-17.5-40.5c0-.52,0-1.04.02-1.56l34.96-.23c.01.59.02,1.19.02,1.79Z"/>
    <path class="cls-1" d="m493.02,536.06c0,3.31-.17,6.52-.5,9.6-1.86,17.74-8.77,30.9-17,30.9-9.66,0-17.5-18.13-17.5-40.5,0-.6.01-1.2.02-1.79l34-.21c.06-2.61.22-5.15.48-7.6.26,2.45.42,4.98.48,7.59.01.66.02,1.33.02,2.01Z"/>
    <path class="cls-1" d="m527.02,536.06c0,22.37-7.84,40.5-17.5,40.5-8.23,0-15.14-13.16-17-30.9-.33-3.08-.5-6.29-.5-9.6,0-.67.01-1.34.02-2,.06-2.61.22-5.15.48-7.6.26,2.45.42,4.98.48,7.59l33.99-.22h.01c.01.74.02,1.48.02,2.23Z"/>
    <path class="cls-1" d="m562.02,536.06c0,22.37-7.84,40.5-17.5,40.5s-17.5-18.13-17.5-40.5c0-.75.01-1.49.03-2.23l34.94-.22c.02.81.03,1.63.03,2.45Z"/>
    <path class="cls-1" d="m597.02,536.06c0,22.37-7.84,40.5-17.5,40.5s-17.5-18.13-17.5-40.5c0-.82.01-1.64.03-2.45l34.93-.22c.03.88.04,1.77.04,2.67Z"/>
    <path class="cls-1" d="m632.02,533.16c-.02,22.32-7.85,40.4-17.5,40.4s-17.42-17.95-17.5-40.17l35-.23Z"/>
    <path class="cls-1" d="m388.02,536.06c0,22.37-7.84,40.5-17.5,40.5s-17.5-18.13-17.5-40.5c0-.37,0-.74.01-1.11l34.98-.23c.01.44.01.89.01,1.34Z"/>
    <polyline class="cls-6" points="257.02 535.56 311.02 535.21 337.15 535.05 353.03 534.95 388.01 534.72 388.03 534.72 423 534.5 423.04 534.5 458 534.27 458.04 534.27 492.04 534.06 493 534.05 526.99 533.83 527 533.83 527.05 533.83 561.99 533.61 562.05 533.61 596.98 533.39 597.02 533.39 632.02 533.16 658.79 532.99 688.99 532.8 726.02 532.56"/>
  </g>
</svg>