<?xml version="1.0" encoding="UTF-8"?>
<svg id="_Шар_1" data-name="Шар 1" xmlns="http://www.w3.org/2000/svg" viewBox="0 0 465 465">
  <defs>
    <style>
      .cls-1 {
        fill: #ffd79f;
      }

      .cls-2 {
        fill: #ff4a4a;
      }
    </style>
  </defs>
  <path class="cls-2" d="m411.5,332.22c-.59-1.05-1.19-2.1-1.78-3.14-1.77-3.12-3.52-6.19-5.26-9.2-.54-.96-1.09-1.91-1.65-2.85-4.01-6.95-7.94-13.61-11.77-19.99l25.31,43.83c-1.63-2.93-3.25-5.81-4.85-8.65ZM232.5,0C104.09,0,0,104.09,0,232.5s104.09,232.5,232.5,232.5,232.5-104.09,232.5-232.5S360.91,0,232.5,0ZM54.38,341.38c1.55,1.1,150.48,106.3,362.23,0-2.13,1.7-207.17,163.99-362.23,0Zm-.01-.01S-9.49,100.78,235.47,27.64c-2.81,1.26-184.21,83.4-181.1,313.73L235.43,27.75s.03-.04.04-.06t.01-.02s0-.01.01-.01c0-.01.01-.02.01-.03l147.89,256.17s.05.1.08.14l7.51,13s.03.07.06.1l25.31,43.83c.04.06.07.12.11.19.03.05.06.1.08.14.02.03.03.06.04.08.02.03.03.06.05.09C421.85,99.98,238.36,28.73,235.53,27.64c252.96,78.14,181.1,313.73,181.1,313.73H54.37Z"/>
  <path class="cls-1" d="m416.63,341.37S232.5-3.5,232.5,232.5c0,0,7.13-209.13,184.13,108.87Z"/>
  <path class="cls-1" d="m54.37,341.37s443.13-40.87,178.13-108.87c0,0,233.74,61.74-178.13,108.87Z"/>
  <path class="cls-1" d="m235.5,27.63s-169,314.87-3,204.87c0,0-129,80.13,3-204.87Z"/>
</svg>