<?xml version="1.0" encoding="UTF-8"?>
<svg id="_Шар_1" data-name="Шар 1" xmlns="http://www.w3.org/2000/svg" xmlns:xlink="http://www.w3.org/1999/xlink" viewBox="0 0 1598.48 1077.5">
  <defs>
    <style>
      .cls-1 {
        stroke-width: 11px;
      }

      .cls-1, .cls-2, .cls-3, .cls-4, .cls-5, .cls-6, .cls-7, .cls-8, .cls-9, .cls-10, .cls-11, .cls-12, .cls-13, .cls-14, .cls-15, .cls-16, .cls-17, .cls-18, .cls-19, .cls-20, .cls-21, .cls-22 {
        stroke-miterlimit: 10;
      }

      .cls-1, .cls-2, .cls-4, .cls-5, .cls-23, .cls-7, .cls-9, .cls-10, .cls-12, .cls-13, .cls-14, .cls-16, .cls-17, .cls-18, .cls-20, .cls-21 {
        stroke: #000;
      }

      .cls-1, .cls-23, .cls-14, .cls-17, .cls-18, .cls-19, .cls-20 {
        fill: none;
      }

      .cls-1, .cls-14 {
        stroke-dasharray: 0 0 0 0 0 0 1.01 10.08 1.01 1.01 10.08 1.01;
      }

      .cls-2, .cls-3, .cls-6, .cls-7, .cls-8, .cls-9, .cls-11, .cls-15, .cls-24 {
        fill: #b3b3b3;
      }

      .cls-2, .cls-23, .cls-11, .cls-17, .cls-20 {
        stroke-width: 7px;
      }

      .cls-3 {
        stroke: gray;
      }

      .cls-3, .cls-4, .cls-5, .cls-10, .cls-12, .cls-13, .cls-15, .cls-16, .cls-18, .cls-21 {
        stroke-width: 5px;
      }

      .cls-4 {
        fill: #662d91;
      }

      .cls-5 {
        fill: #ff9fda;
        opacity: .5;
      }

      .cls-6 {
        stroke: #799400;
        stroke-width: 4px;
      }

      .cls-23 {
        stroke-dasharray: 0 0 .99 19.85;
        stroke-miterlimit: 100;
      }

      .cls-23, .cls-14, .cls-20 {
        stroke-linecap: round;
      }

      .cls-7 {
        stroke-width: 27px;
      }

      .cls-8 {
        stroke: #7ac943;
        stroke-width: 8px;
      }

      .cls-9, .cls-14 {
        stroke-width: 6px;
      }

      .cls-25 {
        fill: #f3ff00;
      }

      .cls-10 {
        fill: #ff0;
      }

      .cls-11 {
        stroke: red;
      }

      .cls-26 {
        fill: url(#_Градієнт_без_назви_7);
      }

      .cls-12 {
        fill: #39b54a;
        opacity: .61;
      }

      .cls-27 {
        opacity: .75;
      }

      .cls-13 {
        fill: aqua;
      }

      .cls-28 {
        fill: url(#_Градієнт_без_назви_69);
      }

      .cls-15 {
        stroke: blue;
      }

      .cls-16 {
        fill: #ff3f8b;
      }

      .cls-17 {
        stroke-dasharray: 0 0 15.01 15.01;
        stroke-linecap: square;
      }

      .cls-29 {
        fill: url(#_Градієнт_без_назви_17);
      }

      .cls-30 {
        fill: url(#_Градієнт_без_назви_76);
      }

      .cls-19 {
        stroke: url(#_Градієнт_без_назви_98);
      }

      .cls-19, .cls-22 {
        stroke-width: 9px;
      }

      .cls-20 {
        stroke-dasharray: 0 0 0 0 0 0 15.46 10.31 1.03 15.46 10.31 1.03;
      }

      .cls-21 {
        fill: #666;
      }

      .cls-22 {
        fill: url(#_Градієнт_без_назви_76-2);
        stroke: url(#_Градієнт_без_назви_95);
      }

      .cls-31 {
        fill: red;
      }
    </style>
    <linearGradient id="_Градієнт_без_назви_7" data-name="Градієнт без назви 7" x1="245" y1="1044" x2="245" y2="873" gradientUnits="userSpaceOnUse">
      <stop offset="0" stop-color="#cce0f4" stop-opacity="0"/>
      <stop offset=".44" stop-color="#70a4ca" stop-opacity=".45"/>
      <stop offset=".99" stop-color="#005b97"/>
    </linearGradient>
    <radialGradient id="_Градієнт_без_назви_69" data-name="Градієнт без назви 69" cx="597" cy="977.5" fx="597" fy="977.5" r="121.47" gradientUnits="userSpaceOnUse">
      <stop offset="0" stop-color="#fff"/>
      <stop offset="1" stop-color="#4c6a00"/>
    </radialGradient>
    <radialGradient id="_Градієнт_без_назви_76" data-name="Градієнт без назви 76" cx="757" cy="977.5" fx="757" fy="977.5" r="121.47" gradientTransform="translate(0 684.25) scale(1 .3)" gradientUnits="userSpaceOnUse">
      <stop offset="0" stop-color="#000"/>
      <stop offset="1" stop-color="#4c6a00" stop-opacity="0"/>
    </radialGradient>
    <linearGradient id="_Градієнт_без_назви_17" data-name="Градієнт без назви 17" x1="1181.91" y1="380.4" x2="1181.91" y2="209.4" gradientTransform="translate(1613.91 1259.4) rotate(-180)" gradientUnits="userSpaceOnUse">
      <stop offset="0" stop-color="#cce0f4" stop-opacity="0"/>
      <stop offset=".99" stop-color="#000"/>
    </linearGradient>
    <radialGradient id="_Градієнт_без_назви_76-2" data-name="Градієнт без назви 76" cx="917" fx="917" xlink:href="#_Градієнт_без_назви_76"/>
    <linearGradient id="_Градієнт_без_назви_95" data-name="Градієнт без назви 95" x1="1006.09" y1="888.41" x2="827.91" y2="1066.59" gradientUnits="userSpaceOnUse">
      <stop offset="0" stop-color="#cce0f4" stop-opacity="0"/>
      <stop offset=".99" stop-color="#000"/>
    </linearGradient>
    <linearGradient id="_Градієнт_без_назви_98" data-name="Градієнт без назви 98" x1="1171.59" y1="888.91" x2="993.41" y2="1067.09" gradientUnits="userSpaceOnUse">
      <stop offset="0" stop-color="#cce0f4" stop-opacity="0"/>
      <stop offset=".08" stop-color="#ccdaf4" stop-opacity=".04"/>
      <stop offset=".22" stop-color="#cfccf5" stop-opacity=".14"/>
      <stop offset=".4" stop-color="#d3b6f7" stop-opacity=".3"/>
      <stop offset=".62" stop-color="#d996f9" stop-opacity=".53"/>
      <stop offset=".85" stop-color="#e16ffc" stop-opacity=".81"/>
      <stop offset=".99" stop-color="#e655ff"/>
    </linearGradient>
  </defs>
  <g class="cls-27">
    <path class="cls-31" d="m61,63.5c-15.89,0-30.78-3.33-41.94-9.36-10.68-5.78-16.56-13.28-16.56-21.14s5.88-15.36,16.56-21.14C30.22,5.83,45.11,2.5,61,2.5s30.78,3.33,41.94,9.36c10.68,5.78,16.56,13.28,16.56,21.14s-5.88,15.36-16.56,21.14c-11.16,6.04-26.06,9.36-41.94,9.36Z"/>
    <path d="m61,5c15.48,0,29.95,3.22,40.75,9.06,9.83,5.32,15.25,12.04,15.25,18.94s-5.41,13.62-15.25,18.94c-10.8,5.84-25.28,9.06-40.75,9.06s-29.95-3.22-40.75-9.06c-9.83-5.32-15.25-12.04-15.25-18.94s5.41-13.62,15.25-18.94c10.8-5.84,25.28-9.06,40.75-9.06m0-5C27.31,0,0,14.77,0,33s27.31,33,61,33,61-14.77,61-33S94.69,0,61,0h0Z"/>
  </g>
  <g class="cls-27">
    <ellipse class="cls-31" cx="129.5" cy="121.5" rx="18" ry="59"/>
    <path d="m129.5,65c5.26,0,15.5,19.94,15.5,56.5s-10.24,56.5-15.5,56.5-15.5-19.94-15.5-56.5,10.24-56.5,15.5-56.5m0-5c-11.32,0-20.5,27.53-20.5,61.5s9.18,61.5,20.5,61.5,20.5-27.53,20.5-61.5-9.18-61.5-20.5-61.5h0Z"/>
  </g>
  <g class="cls-27">
    <circle class="cls-31" cx="238" cy="61" r="44.5"/>
    <path d="m238,19c23.16,0,42,18.84,42,42s-18.84,42-42,42-42-18.84-42-42,18.84-42,42-42m0-5c-25.96,0-47,21.04-47,47s21.04,47,47,47,47-21.04,47-47-21.04-47-47-47h0Z"/>
  </g>
  <g class="cls-27">
    <circle class="cls-31" cx="321.5" cy="113.5" r="86"/>
    <path d="m321.5,30c46.04,0,83.5,37.46,83.5,83.5s-37.46,83.5-83.5,83.5-83.5-37.46-83.5-83.5,37.46-83.5,83.5-83.5m0-5c-48.88,0-88.5,39.62-88.5,88.5s39.62,88.5,88.5,88.5,88.5-39.62,88.5-88.5-39.62-88.5-88.5-88.5h0Z"/>
  </g>
  <g class="cls-27">
    <ellipse class="cls-31" cx="238" cy="232.5" rx="86.5" ry="33"/>
    <path d="m238,202c49.5,0,84,16.07,84,30.5s-34.5,30.5-84,30.5-84-16.07-84-30.5,34.5-30.5,84-30.5m0-5c-49.15,0-89,15.89-89,35.5s39.85,35.5,89,35.5,89-15.89,89-35.5-39.85-35.5-89-35.5h0Z"/>
  </g>
  <g class="cls-27">
    <ellipse class="cls-31" cx="455.5" cy="140.5" rx="70" ry="25"/>
    <path d="m455.5,118c41.82,0,67.5,13.1,67.5,22.5s-25.68,22.5-67.5,22.5-67.5-13.1-67.5-22.5,25.68-22.5,67.5-22.5m0-5c-40.04,0-72.5,12.31-72.5,27.5s32.46,27.5,72.5,27.5,72.5-12.31,72.5-27.5-32.46-27.5-72.5-27.5h0Z"/>
  </g>
  <g class="cls-27">
    <polygon class="cls-25" points="513.55 176.27 443.26 137.53 516.77 105.3 531.89 26.47 585.26 86.43 664.9 76.45 624.37 145.74 658.47 218.4 580.05 201.26 521.48 256.14 513.55 176.27"/>
    <path d="m533.39,31.92l49.12,55.19,1.75,1.96,2.61-.33,73.31-9.18-37.31,63.77-1.33,2.27,1.12,2.38,31.39,66.89-72.18-15.77-2.57-.56-1.92,1.8-53.91,50.52-7.3-73.52-.26-2.62-2.3-1.27-64.71-35.66,67.67-29.67,2.41-1.06.5-2.58,13.92-72.56m-3-10.89l-15.83,82.51-76.95,33.73,73.58,40.55,8.31,83.6,61.31-57.45,82.08,17.94-35.69-76.06,42.42-72.52-83.36,10.44-55.86-62.76h0Z"/>
  </g>
  <g class="cls-27">
    <polygon class="cls-25" points="683.59 177.64 614.65 196.77 641.41 130.42 601.92 70.76 673.29 75.7 717.82 19.71 735.17 89.12 802.19 114.16 741.54 152.12 738.43 223.59 683.59 177.64"/>
    <path d="m716.62,25.23l15.81,63.21.64,2.55,2.46.92,61.04,22.81-55.24,34.57-2.23,1.39-.11,2.63-2.84,65.1-49.95-41.85-2.01-1.69-2.53.7-62.79,17.42,24.37-60.43.98-2.44-1.45-2.19-35.97-54.33,65.01,4.5,2.62.18,1.64-2.06,40.56-51m2.39-11.04l-46.87,58.93-75.11-5.2,41.56,62.78-28.16,69.83,72.55-20.13,57.71,48.36,3.28-75.22,63.82-39.94-70.53-26.36-18.27-73.04h0Z"/>
  </g>
  <g class="cls-27">
    <polygon class="cls-25" points="756.53 174.29 708.55 142.36 763.08 123.7 778.62 68.2 813.22 114.29 870.8 111.92 837.65 159.07 857.7 213.11 802.62 196.15 757.42 231.91 756.53 174.29"/>
    <path d="m779.66,73.75l30.77,40.99,1.58,2.1,2.63-.11,51.21-2.11-29.48,41.93-1.51,2.15.91,2.46,17.83,48.05-48.99-15.08-2.51-.77-2.06,1.63-40.19,31.8-.8-51.25-.04-2.63-2.19-1.46-42.67-28.4,48.49-16.59,2.49-.85.71-2.53,13.82-49.36m-2.08-11.1l-16.55,59.11-58.08,19.87,51.1,34.01.95,61.38,48.14-38.09,58.67,18.06-21.35-57.55,35.31-50.22-61.33,2.52-36.85-49.1h0Z"/>
  </g>
  <g class="cls-27">
    <polygon class="cls-25" points="914.54 131.49 891.91 141.2 897.97 117.33 881.74 98.8 906.31 97.19 918.91 76.03 928.04 98.9 952.06 104.35 933.13 120.1 935.37 144.62 914.54 131.49"/>
    <path d="m918.47,81.66l6.77,16.95.97,2.44,2.56.58,17.8,4.04-14.03,11.67-2.02,1.68.24,2.62,1.66,18.17-15.44-9.74-2.22-1.4-2.42,1.04-16.77,7.2,4.49-17.69.65-2.55-1.73-1.98-12.03-13.73,18.21-1.2,2.62-.17,1.34-2.26,9.34-15.68m.89-11.26l-14.52,24.38-28.32,1.86,18.7,21.35-6.98,27.51,26.08-11.19,24,15.14-2.58-28.26,21.82-18.15-27.68-6.28-10.52-26.36h0Z"/>
  </g>
  <g class="cls-27">
    <polygon class="cls-25" points="989.35 148.42 974.38 142.55 988.14 134.24 989.1 118.2 1001.25 128.71 1016.8 124.66 1010.56 139.47 1019.22 153.01 1003.2 151.65 993 164.07 989.35 148.42"/>
    <path d="m991.29,123.4l7.33,6.34,1.99,1.72,2.54-.66,9.38-2.44-3.77,8.93-1.02,2.42,1.42,2.21,5.22,8.17-9.66-.82-2.62-.22-1.67,2.03-6.15,7.49-2.2-9.44-.6-2.56-2.45-.96-9.02-3.54,8.3-5.01,2.25-1.36.16-2.62.58-9.68m-4.39-10.41l-1.18,19.79-16.97,10.25,18.46,7.23,4.5,19.31,12.58-15.32,19.75,1.68-10.68-16.7,7.7-18.27-19.18,5-14.99-12.97h0Z"/>
  </g>
  <path class="cls-18" d="m1225.14,195.08c0-50.81-41.19-92-92-92-40.65,0-73.6,32.95-73.6,73.6,0,32.52,26.36,58.88,58.88,58.88,26.01,0,47.1-21.09,47.1-47.1,0-20.81-16.87-37.68-37.68-37.68-16.65,0-30.15,13.5-30.15,30.15,0,13.32,10.8,24.12,24.12,24.12,10.66,0,19.29-8.64,19.29-19.29,0-8.52-6.91-15.44-15.44-15.44-6.82,0-12.35,5.53-12.35,12.35"/>
  <path class="cls-18" d="m1151.5,135.5c11.6,64.07,72.93,106.6,137,95,51.25-9.28,85.28-58.35,76-109.6-7.42-41-46.68-68.22-87.68-60.8-32.8,5.94-54.58,37.34-48.64,70.14,4.75,26.24,29.87,43.66,56.12,38.91,20.99-3.8,34.93-23.9,31.13-44.89-3.04-16.79-19.12-27.94-35.91-24.9-13.44,2.43-22.36,15.3-19.92,28.73,1.95,10.75,12.24,17.88,22.98,15.94,8.6-1.56,14.31-9.79,12.75-18.39"/>
  <path class="cls-18" d="m1476.5,119.5c4.97-56.33-36.67-106.03-93-111-45.07-3.98-84.82,29.33-88.8,74.4-3.18,36.05,23.47,67.86,59.52,71.04,28.84,2.54,54.29-18.77,56.83-47.62,2.04-23.07-15.02-43.43-38.09-45.47-18.46-1.63-34.74,12.02-36.37,30.47-1.3,14.77,9.61,27.79,24.38,29.1,11.81,1.04,22.24-7.69,23.28-19.5.83-9.45-6.15-17.79-15.6-18.62-7.56-.67-14.23,4.92-14.9,12.48"/>
  <path class="cls-18" d="m1373.5,119.5c9.94,66.83,72.17,112.94,139,103,53.46-7.95,90.35-57.74,82.4-111.2-6.36-42.77-46.19-72.28-88.96-65.92-34.22,5.09-57.83,36.95-52.74,71.17,4.07,27.37,29.56,46.26,56.93,42.19,21.9-3.26,37.01-23.65,33.75-45.55-2.61-17.52-18.92-29.61-36.44-27-14.01,2.08-23.69,15.14-21.6,29.15,1.67,11.21,12.11,18.95,23.32,17.28,8.97-1.33,15.16-9.69,13.82-18.66"/>
  <ellipse class="cls-21" cx="157.5" cy="356" rx="149" ry="85.5"/>
  <ellipse class="cls-5" cx="355.5" cy="362" rx="149" ry="85.5"/>
  <ellipse class="cls-13" cx="557.5" cy="362" rx="149" ry="85.5"/>
  <ellipse class="cls-10" cx="756.5" cy="356" rx="149" ry="85.5"/>
  <ellipse class="cls-4" cx="957.5" cy="356" rx="149" ry="85.5"/>
  <ellipse class="cls-12" cx="1146.5" cy="356" rx="149" ry="85.5"/>
  <ellipse class="cls-16" cx="1318.5" cy="356" rx="149" ry="85.5"/>
  <ellipse class="cls-24" cx="157.5" cy="528" rx="149" ry="85.5"/>
  <g>
    <ellipse class="cls-24" cx="1195" cy="752.5" rx="149" ry="85.5"/>
    <ellipse class="cls-14" cx="1195" cy="752.5" rx="149" ry="85.5"/>
  </g>
  <g>
    <ellipse class="cls-24" cx="1002" cy="752.5" rx="149" ry="85.5"/>
    <ellipse class="cls-20" cx="1002" cy="752.5" rx="149" ry="85.5"/>
  </g>
  <g>
    <ellipse class="cls-24" cx="844" cy="752.5" rx="149" ry="85.5"/>
    <ellipse class="cls-17" cx="844" cy="752.5" rx="149" ry="85.5"/>
  </g>
  <g>
    <ellipse class="cls-24" cx="663" cy="752.5" rx="149" ry="85.5"/>
    <ellipse class="cls-23" cx="663" cy="752.5" rx="149" ry="85.5"/>
  </g>
  <ellipse class="cls-24" cx="210" cy="752.5" rx="149" ry="85.5"/>
  <ellipse class="cls-2" cx="283" cy="527.5" rx="149" ry="85.5"/>
  <ellipse class="cls-3" cx="468" cy="534.5" rx="149" ry="85.5"/>
  <ellipse class="cls-11" cx="640" cy="540.5" rx="149" ry="85.5"/>
  <ellipse class="cls-8" cx="808" cy="554.5" rx="149" ry="85.5"/>
  <ellipse class="cls-15" cx="983" cy="558.5" rx="149" ry="85.5"/>
  <ellipse class="cls-6" cx="1149" cy="554.5" rx="149" ry="85.5"/>
  <ellipse class="cls-24" cx="1308" cy="554.5" rx="149" ry="85.5"/>
  <ellipse class="cls-9" cx="374" cy="752.5" rx="149" ry="85.5"/>
  <ellipse class="cls-7" cx="515" cy="752.5" rx="149" ry="85.5"/>
  <ellipse class="cls-26" cx="245" cy="958.5" rx="149" ry="85.5"/>
  <ellipse class="cls-28" cx="597" cy="977.5" rx="149" ry="85.5"/>
  <ellipse class="cls-30" cx="757" cy="977.5" rx="149" ry="85.5"/>
  <ellipse class="cls-1" cx="1251" cy="986.5" rx="149" ry="85.5"/>
  <ellipse class="cls-29" cx="432" cy="964.5" rx="149" ry="85.5"/>
  <ellipse class="cls-22" cx="917" cy="977.5" rx="149" ry="85.5"/>
  <ellipse class="cls-19" cx="1082.5" cy="978" rx="149" ry="85.5"/>
</svg>