<?xml version="1.0" encoding="UTF-8"?>
<svg id="_Шар_1" data-name="Шар 1" xmlns="http://www.w3.org/2000/svg" viewBox="0 0 446 634.39">
  <defs>
    <style>
      .cls-1 {
        fill: blue;
      }
    </style>
  </defs>
  <path class="cls-1" d="m124.5,202.03s-11.92-3.88-13.34,75.25c8.26-1.23,17.03-2.48,26.34-3.74v-11.9h-.5v-26.11s-1.5-27.5,46.5-29.5v-37.84l-59,33.84Zm217.5,33.5v16.15c8.03-.72,16.23-1.44,24.59-2.16l.09-10.86s-3.18-36.63,43.82-36.63v-27.2s-67-9.8-68.5,60.7Zm-1.63,122.93c-8.57,41.51-42.11,73.89-84.23,80.73.03,8.58.06,16.88.09,24.83,55.06-7.33,98.99-49.81,108.52-104.13-7.76-.44-15.91-.92-24.38-1.43Zm-120.24,80.24c-46.22-8.78-81.48-48.44-83.53-96.71-8.47-.94-16.75-1.91-24.77-2.91.66,63.33,47.53,115.58,108.49,124.66l-.19-25.04Zm145.85-114.44l.58-71.49c-7.91,1.09-16.14,2.26-24.56,3.5v6.05h-.5v60.88c.66,4.68,1,9.47,1,14.33,0,5.47-.43,10.84-1.25,16.08,7.73.89,15.75,1.79,24.08,2.68.89-6.06,1.35-12.27,1.35-18.58,0-4.54-.24-9.03-.7-13.45Z"/>
  <path class="cls-1" d="m111.82,337.71c0,.46,0,.91.01,1.37-116.31-14.5-178.4-35.2-.67-61.8-.3,16.35-.14,36.24.66,60.43Z"/>
  <path class="cls-1" d="m445.49,243.05c-4.42.47-37.18,3.97-78.93,9.72l.03-3.25c24.8-2.13,51.08-4.29,78.9-6.47Z"/>
  <path class="cls-1" d="m255.75,341.79c23.29,3.95,51.57,7.9,85.5,11.82-.25,1.63-.55,3.25-.88,4.85-25.94-1.58-54.86-3.47-84.56-5.69-.02-3.65-.04-7.31-.06-10.98Z"/>
  <path class="cls-1" d="m219.33,334.71l.11,15.19c-28.3-2.35-56.52-4.99-82.84-7.91-.07-1.48-.1-2.97-.1-4.46,0-4.86.34-9.65,1-14.33v-49.66c23.56-3.19,50.55-6.46,81.28-9.82l.12,15.95c-60.38,15.87-87.36,35.31.43,55.04Z"/>
  <path class="cls-1" d="m342,251.68v4.59c-28.38,4.2-58.92,9.25-86.6,14.97-.01-3.8-.04-7.59-.06-11.35,26.45-2.69,55.29-5.43,86.66-8.21Z"/>
  <path class="cls-1" d="m446,364.02s-33.09-1.39-81.25-4.13c.22-1.2.41-2.39.58-3.6,24.27,2.59,51.09,5.17,80.67,7.73Z"/>
  <path class="cls-1" d="m446,243s-.07.01-.21.02c.07-.01.14-.01.21-.02Z"/>
  <path class="cls-1" d="m256.5,558.03s7,69-66,76-78-89-38-137l16,25s-19,76.68,15,74.84c0,0,37.91,7.03,37.46-49.9l-.64-83.23c6.17.92,12.5,1.4,18.93,1.4,5.76,0,11.43-.38,16.98-1.12.18,55.27.27,94.01.27,94.01Z"/>
  <path class="cls-1" d="m255.81,352.77c.13,30.16.24,59.64.33,86.42-5.42.88-10.97,1.34-16.64,1.34-6.62,0-13.1-.62-19.37-1.83l-.69-88.8c12.16,1.01,24.33,1.96,36.37,2.87Z"/>
  <path class="cls-1" d="m255.4,271.24c.13,23.15.25,46.97.35,70.54-13.86-2.35-25.96-4.71-36.42-7.07l-.43-55.04c11.19-2.94,23.53-5.76,36.5-8.43Z"/>
  <path class="cls-1" d="m328.5,98.03l-34-27s13-30-7-36-36,11-34,55c.76,16.67,1.37,87.85,1.84,169.86-12.74,1.29-24.92,2.57-36.56,3.83l-1.28-166.69S212.5-1.97,278.5.03s80,51,50,98Z"/>
</svg>